<?xml version="1.0" standalone="no"?>
<!DOCTYPE svg PUBLIC "-//W3C//DTD SVG 20010904//EN"
 "http://www.w3.org/TR/2001/REC-SVG-20010904/DTD/svg10.dtd">
<svg version="1.0" xmlns="http://www.w3.org/2000/svg"
 width="50.000000pt" height="50.000000pt" viewBox="0 0 50.000000 50.000000"
 preserveAspectRatio="xMidYMid meet">
<metadata>
Created by potrace 1.12, written by Peter Selinger 2001-2015
</metadata>
<g transform="translate(0.000000,50.000000) scale(0.100000,-0.100000)"
fill="#000000" stroke="none">
<path d="M137 473 c-15 -55 -17 -74 -7 -68 5 3 10 17 10 31 0 29 24 41 46 23
18 -15 13 -45 -19 -107 -13 -26 -27 -40 -35 -37 -10 4 -11 -1 -6 -18 11 -30 7
-77 -7 -104 -15 -27 2 -53 35 -53 19 1 20 2 4 14 -15 11 -16 20 -4 92 7 45 16
85 19 91 5 7 18 5 42 -6 30 -13 34 -20 30 -41 -4 -19 -3 -21 5 -10 5 8 10 25
10 37 0 24 4 27 43 37 20 5 27 3 27 -8 0 -8 6 -17 13 -20 6 -4 -3 -4 -20 -1
-31 4 -33 2 -33 -23 0 -16 -7 -37 -15 -48 -13 -16 -16 -17 -25 -4 -8 12 -10
10 -10 -10 0 -14 5 -32 10 -40 8 -13 11 -12 24 5 8 11 18 37 21 57 6 31 29 57
42 45 3 -4 -19 -114 -33 -166 -6 -21 -11 -23 -48 -18 -23 3 -50 9 -61 13 -11
5 -16 4 -12 -3 10 -16 112 -36 151 -29 33 6 36 10 36 41 0 19 4 37 10 40 6 3
10 16 10 28 0 11 12 33 26 48 18 19 30 47 39 96 7 37 11 70 9 72 -3 3 -15 -5
-27 -18 -18 -18 -19 -21 -4 -15 16 6 18 3 12 -32 -11 -65 -14 -71 -50 -99 -42
-31 -43 -27 -10 25 26 41 33 66 15 55 -6 -4 -26 3 -45 15 -34 21 -34 22 -18
46 15 23 15 27 0 41 -21 21 -43 5 -52 -38 -6 -26 -11 -29 -46 -29 l-39 0 6 38
c6 40 -2 54 -43 66 -16 5 -23 2 -26 -11z m184 -72 c-7 -12 -16 -21 -21 -21
-12 0 -12 2 0 36 8 19 14 24 21 17 8 -8 7 -17 0 -32z m-41 -38 c-8 -3 -20 -11
-26 -19 -13 -16 -54 -7 -54 12 0 10 13 14 48 13 26 0 40 -3 32 -6z"/>
<path d="M47 183 c-10 -9 -9 -33 1 -33 4 0 8 9 9 20 2 21 0 24 -10 13z"/>
<path d="M440 88 c0 -9 -12 -21 -27 -26 -23 -9 -24 -11 -7 -11 11 -1 29 5 40
13 15 12 17 17 7 27 -11 11 -13 10 -13 -3z"/>
<path d="M80 65 c7 -8 22 -15 34 -15 18 0 17 2 -8 15 -36 19 -42 19 -26 0z"/>
</g>
</svg>
