<?xml version="1.0" standalone="no"?>
<!DOCTYPE svg PUBLIC "-//W3C//DTD SVG 20010904//EN"
 "http://www.w3.org/TR/2001/REC-SVG-20010904/DTD/svg10.dtd">
<svg version="1.0" xmlns="http://www.w3.org/2000/svg"
 width="55.000000pt" height="53.000000pt" viewBox="0 0 55.000000 53.000000"
 preserveAspectRatio="xMidYMid meet">
<metadata>
Created by potrace 1.12, written by Peter Selinger 2001-2015
</metadata>
<g transform="translate(0.000000,53.000000) scale(0.100000,-0.100000)"
fill="#000000" stroke="none">
<path d="M476 521 c-4 -6 -29 -22 -54 -34 -26 -13 -57 -30 -69 -37 -20 -13
-26 -12 -51 2 -29 17 -111 33 -224 43 l-68 6 0 -240 c0 -216 2 -239 17 -245
25 -10 172 4 211 20 17 7 32 11 32 8 0 -9 78 36 82 47 3 8 27 -6 61 -34 32
-26 61 -47 65 -47 24 1 52 45 52 83 0 26 -16 37 -56 37 -13 0 -24 4 -24 8 0 4
23 30 50 57 28 27 50 58 50 69 0 23 -87 111 -119 121 -39 12 -21 25 34 25 60
0 72 10 61 54 -9 35 -41 72 -50 57z m-338 -58 c-18 -3 -25 -9 -21 -19 8 -21
-10 -17 -25 6 -11 19 -10 20 30 19 29 -2 34 -3 16 -6z m93 -19 c12 -14 11 -16
-5 -13 -11 2 -21 10 -24 17 -5 17 13 15 29 -4z m-171 -4 c0 -5 -4 -10 -10 -10
-5 0 -10 5 -10 10 0 6 5 10 10 10 6 0 10 -4 10 -10z m215 -10 c3 -5 1 -10 -4
-10 -6 0 -11 5 -11 10 0 6 2 10 4 10 3 0 8 -4 11 -10z m-95 -10 c0 -5 -4 -10
-10 -10 -5 0 -10 5 -10 10 0 6 5 10 10 10 6 0 10 -4 10 -10z m-49 -12 c49 -14
49 -24 2 -32 -58 -9 -63 -8 -63 19 0 28 7 30 61 13z m167 -142 l3 -108 -28 7
c-15 3 -31 12 -35 18 -4 7 -8 54 -8 105 l0 93 33 -3 32 -3 3 -109z m-135 32
c3 -35 2 -67 -3 -72 -5 -5 -25 -4 -47 1 -36 8 -38 11 -41 52 -3 42 12 76 29
65 5 -3 17 0 26 5 28 16 30 14 36 -51z m288 30 c54 -63 55 -70 13 -116 -20
-23 -41 -42 -46 -42 -4 0 -8 43 -8 95 0 52 3 95 6 95 4 0 19 -15 35 -32z
m-322 -135 c39 -23 45 -40 26 -70 -13 -19 -23 -23 -48 -21 -29 3 -32 6 -35 42
-6 68 6 78 57 49z m141 -53 c0 -5 -7 -10 -15 -10 -8 0 -15 5 -15 10 0 6 7 10
15 10 8 0 15 -4 15 -10z m-90 -90 c0 -5 -2 -10 -4 -10 -3 0 -8 5 -11 10 -3 6
-1 10 4 10 6 0 11 -4 11 -10z m-107 -17 c-7 -2 -21 -2 -30 0 -10 3 -4 5 12 5
17 0 24 -2 18 -5z"/>
</g>
</svg>
