<?xml version="1.0" standalone="no"?>
<!DOCTYPE svg PUBLIC "-//W3C//DTD SVG 20010904//EN"
 "http://www.w3.org/TR/2001/REC-SVG-20010904/DTD/svg10.dtd">
<svg version="1.0" xmlns="http://www.w3.org/2000/svg"
 width="213.000000pt" height="50.000000pt" viewBox="0 0 213.000000 50.000000"
 preserveAspectRatio="xMidYMid meet">
<metadata>
Created by potrace 1.12, written by Peter Selinger 2001-2015
</metadata>
<g transform="translate(0.000000,50.000000) scale(0.100000,-0.100000)"
fill="#000000" stroke="none">
<path d="M2 253 l3 -248 918 -3 918 -2 62 29 c34 17 76 44 94 60 18 17 36 31
41 31 12 0 62 54 62 67 0 6 7 13 15 17 10 3 15 19 15 47 0 38 -6 47 -63 103
-39 39 -93 77 -144 104 l-81 42 -921 0 -921 0 2 -247z m296 196 c2 -13 -10
-17 -69 -22 -40 -3 -75 -11 -78 -16 -4 -6 -25 -13 -47 -17 -55 -8 -74 -21 -54
-34 8 -5 23 -10 33 -10 10 0 31 -7 47 -15 16 -8 71 -18 122 -22 104 -7 117
-15 117 -73 0 -59 -12 -66 -124 -72 -64 -4 -111 -11 -130 -22 -16 -9 -40 -16
-52 -16 -14 0 -23 -6 -23 -15 0 -8 8 -15 18 -15 11 0 33 -7 51 -16 18 -9 68
-18 111 -21 59 -4 80 -10 80 -20 0 -11 -26 -13 -137 -11 l-138 3 -3 218 -2
218 137 -3 c117 -3 138 -5 141 -19z m440 -198 l-1 -218 -205 -2 c-164 -2 -203
0 -200 11 4 10 37 12 149 10 125 -3 142 -1 127 11 -23 18 -23 33 0 42 16 6 16
7 -1 20 -18 13 -18 15 -1 40 l17 27 -79 -5 c-43 -3 -96 -8 -116 -12 l-38 -7 0
71 0 71 44 0 c27 0 48 -6 56 -15 10 -12 27 -15 67 -12 63 5 72 11 50 35 -20
22 -22 38 -4 46 10 5 10 7 0 12 -17 8 -16 24 3 45 9 10 13 23 9 28 -8 15 -122
14 -127 0 -2 -6 -35 -14 -73 -16 -63 -4 -71 -3 -83 16 l-12 21 209 0 209 0 0
-219z m968 209 c5 -5 45 -15 89 -21 50 -8 84 -18 92 -28 17 -23 7 -31 -41 -31
-32 0 -48 6 -66 25 -21 23 -31 25 -103 25 -64 0 -84 4 -104 20 l-26 20 75 0
c41 0 78 -4 84 -10z m-386 -20 c0 -6 -100 -10 -281 -10 -184 0 -278 3 -274 10
4 6 108 10 281 10 176 0 274 -4 274 -10z m120 -1 c0 -5 -25 -22 -55 -35 -46
-21 -64 -25 -105 -19 -69 9 -63 25 10 25 53 0 60 2 60 20 0 17 7 20 45 20 25
0 45 -5 45 -11z m60 2 c0 -6 -5 -13 -10 -16 -8 -5 -7 -11 1 -21 16 -19 4 -30
-16 -14 -18 15 -19 32 -3 48 14 14 28 16 28 3z m-490 -40 c0 -11 -77 -21 -171
-21 -64 0 -79 3 -79 15 0 13 21 15 125 15 69 0 125 -4 125 -9z m-816 -36 c-5
-13 -61 -8 -70 6 -3 5 6 9 20 9 14 0 28 5 32 11 8 14 24 -9 18 -26z m106 21
c-21 -19 -52 -27 -69 -17 -23 15 -2 31 42 31 36 0 39 -2 27 -14z m250 4 c0 -5
-22 -10 -50 -10 -27 0 -50 -4 -50 -10 0 -5 -14 -10 -31 -10 -17 0 -28 4 -24
10 4 7 -3 7 -19 0 -18 -6 -26 -6 -26 1 0 6 -7 9 -15 5 -9 -3 -15 0 -15 9 0 12
21 15 115 15 70 0 115 -4 115 -10z m890 -4 c0 -8 16 -18 38 -23 l37 -9 3 -94
c3 -113 1 -123 -30 -111 -17 7 -28 4 -45 -11 -16 -15 -29 -18 -52 -13 -37 8
-37 9 -10 60 26 47 22 109 -9 153 l-22 29 38 16 c48 20 52 20 52 3z m538 -11
c53 -29 90 -77 97 -127 6 -38 4 -48 -6 -48 -8 0 -22 -11 -32 -24 -10 -13 -32
-30 -48 -36 -16 -7 -27 -16 -24 -20 3 -4 -6 -15 -20 -24 -23 -15 -28 -15 -47
-1 l-22 15 24 0 c14 0 32 5 40 10 13 9 13 11 0 20 -8 5 -27 10 -41 10 -15 0
-41 3 -58 6 -30 6 -32 9 -29 43 l3 35 47 -3 c57 -3 88 5 88 25 0 11 -16 14
-71 14 l-70 0 3 38 3 37 51 3 c42 2 53 7 57 22 6 24 19 25 55 5z m-696 -13
c44 -7 49 -10 73 -55 30 -58 30 -59 3 -113 -19 -39 -26 -44 -67 -51 -76 -12
-319 -7 -336 7 -11 10 -15 35 -15 111 l0 98 28 4 c44 7 263 6 314 -1z m448
-115 c0 -105 -2 -118 -16 -113 -9 3 -49 6 -90 6 l-74 0 0 113 0 112 90 1 90 0
0 -119z m58 11 c2 -85 0 -107 -13 -118 -13 -11 -15 1 -15 110 0 93 3 121 13
118 8 -3 13 -37 15 -110z m-874 2 l1 -95 -77 -3 -78 -3 0 101 0 101 77 -3 76
-3 1 -95z m-374 -120 c0 -5 -18 -10 -39 -10 -23 0 -46 -7 -55 -16 -9 -8 -20
-12 -26 -9 -5 3 -10 1 -10 -5 0 -8 -6 -9 -17 -5 -10 5 -51 8 -90 7 -73 -1 -90
6 -79 33 4 12 34 15 161 15 97 0 155 -4 155 -10z m376 -12 c4 -5 32 -8 62 -8
94 0 51 -10 -67 -16 -110 -5 -151 -1 -151 16 0 16 141 23 156 8z m-726 -7 c0
-17 -17 -21 -51 -14 -33 7 -33 7 -9 14 37 10 60 10 60 0z m1303 2 c4 -3 -1
-12 -11 -20 -16 -12 -16 -14 3 -29 20 -15 19 -16 -5 -12 -18 2 -26 10 -28 27
-4 29 24 52 41 34z m-121 -17 c19 -8 40 -22 47 -30 11 -13 9 -16 -12 -21 -26
-7 -67 9 -67 25 0 6 -46 10 -109 10 -116 0 -162 16 -64 23 130 8 172 6 205 -7z
m480 2 c-17 -17 -15 -28 5 -28 9 0 13 -3 9 -7 -3 -4 -28 -6 -55 -4 -27 1 -52
-2 -56 -8 -3 -6 -19 -11 -35 -11 -16 0 -32 -4 -35 -10 -8 -12 -145 -13 -145
-1 0 17 63 31 136 31 65 0 76 3 98 25 16 16 36 25 58 25 25 0 29 -3 20 -12z
m-777 -37 l240 -8 -180 -4 c-258 -6 -362 -5 -370 3 -15 14 7 26 38 22 17 -3
140 -9 272 -13z"/>
<path d="M118 302 l-38 -3 0 -65 0 -64 36 0 c59 0 74 14 74 68 0 55 -15 69
-72 64z m28 -22 c10 0 14 -12 14 -40 0 -22 -3 -40 -7 -41 -5 0 -18 -2 -30 -3
-21 -2 -22 1 -21 46 0 39 4 48 15 44 8 -3 21 -6 29 -6z"/>
<path d="M1093 330 c-32 -13 -53 -51 -60 -109 -5 -44 -3 -51 11 -51 22 0 58
19 72 39 9 12 15 13 26 3 19 -16 30 -5 16 17 -8 13 -5 27 11 59 11 23 21 44
21 47 0 8 -73 5 -97 -5z m39 -62 c-6 -6 -15 -7 -22 -3 -8 5 -6 13 7 27 16 18
18 19 21 3 2 -9 -1 -22 -6 -27z m-32 -33 c0 -16 -27 -32 -37 -21 -7 7 16 36
28 36 5 0 9 -7 9 -15z"/>
<path d="M1270 254 c0 -32 2 -35 26 -32 55 6 59 68 4 68 -28 0 -30 -3 -30 -36z
m27 -6 c-3 -8 -6 -5 -6 6 -1 11 2 17 5 13 3 -3 4 -12 1 -19z"/>
<path d="M786 308 c3 -13 11 -29 16 -35 12 -15 38 -17 38 -5 0 5 10 8 23 8 17
-1 23 5 25 27 3 24 0 27 -28 27 -25 0 -31 -4 -26 -15 3 -8 2 -15 -3 -15 -5 0
-14 7 -21 15 -19 22 -32 18 -24 -7z"/>
<path d="M780 234 c0 -16 24 -64 33 -64 15 0 6 38 -13 55 -11 10 -20 14 -20 9z"/>
<path d="M830 222 c0 -14 46 -53 53 -45 4 3 7 17 7 30 0 19 -5 23 -30 23 -16
0 -30 -4 -30 -8z"/>
<path d="M1808 83 c7 -3 16 -2 19 1 4 3 -2 6 -13 5 -11 0 -14 -3 -6 -6z"/>
</g>
</svg>
