<?xml version="1.0" standalone="no"?>
<!DOCTYPE svg PUBLIC "-//W3C//DTD SVG 20010904//EN"
 "http://www.w3.org/TR/2001/REC-SVG-20010904/DTD/svg10.dtd">
<svg version="1.0" xmlns="http://www.w3.org/2000/svg"
 width="110.000000pt" height="55.000000pt" viewBox="0 0 110.000000 55.000000"
 preserveAspectRatio="xMidYMid meet">
<metadata>
Created by potrace 1.12, written by Peter Selinger 2001-2015
</metadata>
<g transform="translate(0.000000,55.000000) scale(0.100000,-0.100000)"
fill="#000000" stroke="none">
<path d="M17 543 c-4 -3 -7 -125 -7 -270 l0 -265 353 4 352 3 55 32 c30 17 92
50 137 73 91 47 173 128 173 172 0 23 -36 68 -54 68 -5 0 -19 11 -32 25 -13
14 -26 25 -30 25 -3 0 -19 11 -36 25 -16 14 -42 28 -56 31 -15 4 -40 14 -57
24 -16 10 -55 23 -85 31 -30 7 -59 16 -64 21 -12 10 -640 11 -649 1z m53 -33
c0 -5 -9 -10 -20 -10 -11 0 -20 5 -20 10 0 6 9 10 20 10 11 0 20 -4 20 -10z
m610 -1 c44 -10 137 -46 195 -77 39 -20 166 -122 172 -139 10 -27 -66 -101
-155 -150 -181 -101 -190 -104 -333 -110 -84 -4 -129 -2 -129 4 0 13 81 23
183 23 l77 0 0 210 c0 160 -3 212 -12 215 -12 4 -102 10 -238 16 -40 2 -38 3
20 9 104 11 172 10 220 -1z m-307 -6 c-13 -2 -33 -2 -45 0 -13 2 -3 4 22 4 25
0 35 -2 23 -4z m-296 -95 c-2 -13 -4 -3 -4 22 0 25 2 35 4 23 2 -13 2 -33 0
-45z m53 11 c0 -45 -2 -50 -15 -39 -15 13 -20 47 -9 74 12 32 24 15 24 -35z
m40 -34 c0 -43 -4 -75 -10 -75 -11 0 -14 133 -3 143 12 13 13 7 13 -68z m394
66 c3 -4 -3 -16 -14 -26 -13 -12 -27 -15 -49 -10 -31 7 -42 29 -18 38 21 9 76
8 81 -2z m76 2 c0 -3 -7 -15 -17 -25 -9 -10 -13 -21 -9 -26 5 -4 15 3 23 16 9
12 19 22 24 22 5 0 9 -74 9 -165 0 -162 -8 -198 -30 -140 -5 14 -14 25 -20 25
-19 0 -10 -29 17 -55 26 -24 27 -25 7 -25 -45 0 -63 29 -66 105 l-3 70 -80 -1
-80 -1 -3 -77 -3 -76 -34 0 c-18 0 -39 -2 -47 -5 -11 -4 -13 10 -10 69 4 71 3
75 -22 91 -30 20 -103 16 -117 -7 -5 -7 -9 -46 -9 -86 0 -46 -4 -71 -10 -67
-5 3 -10 35 -10 71 0 51 5 71 22 94 19 26 28 30 73 30 28 0 56 5 63 12 7 7 12
40 12 80 l0 68 45 0 45 0 0 -82 0 -83 71 2 c98 2 99 3 99 70 0 44 5 62 22 80
21 22 38 30 38 16z m-355 -13 c12 -19 14 -70 5 -95 -13 -34 -42 -47 -76 -35
-36 14 -18 34 31 32 39 -2 44 5 18 24 -15 10 -16 15 -5 25 19 20 15 26 -28 33
-23 4 -38 11 -35 16 8 13 82 13 90 0z m160 -55 c1 -29 -2 -60 -6 -67 -5 -8 -9
18 -9 61 0 84 13 90 15 6z m-225 -5 c0 -11 -7 -20 -15 -20 -15 0 -21 21 -8 33
12 13 23 7 23 -13z m257 -17 c-3 -10 -5 -4 -5 12 0 17 2 24 5 18 2 -7 2 -21 0
-30z m73 5 c0 -16 -3 -19 -11 -11 -6 6 -8 16 -5 22 11 17 16 13 16 -11z m-451
-22 c7 -8 11 -37 9 -68 l-3 -53 -35 0 -35 0 -3 68 -3 67 29 0 c16 0 35 -6 41
-14z m431 -20 c0 -15 -27 -25 -48 -18 -9 3 -6 8 10 17 31 17 38 18 38 1z
m-383 -73 c-16 -16 -17 -15 -17 17 0 32 1 33 17 17 16 -16 16 -18 0 -34z m132
-17 c12 -14 22 -101 15 -120 -4 -10 -28 -11 -94 -6 -9 0 -6 6 10 15 18 9 29
10 38 3 19 -16 25 -3 10 21 -10 16 -10 23 0 33 20 20 14 25 -30 32 -40 7 -42
8 -24 22 25 18 60 18 75 0z m271 -4 c0 -2 -7 -10 -16 -19 -13 -13 -19 -14 -39
-3 -14 7 -22 17 -20 21 5 7 75 8 75 1z m-106 -73 c-5 -87 -14 -86 -14 0 0 41
4 70 9 67 5 -4 7 -34 5 -67z m-314 -15 c0 -40 -4 -55 -12 -52 -26 9 -18 108 8
108 2 0 4 -25 4 -56z m347 9 c-3 -10 -5 -2 -5 17 0 19 2 27 5 18 2 -10 2 -26
0 -35z m-410 -99 l27 -7 -23 -9 c-13 -4 -27 -6 -32 -2 -5 3 -8 40 -7 82 l2 77
3 -67 c4 -64 6 -68 30 -74z m153 105 c0 -10 -7 -19 -15 -19 -15 0 -21 31 -9
43 11 10 24 -3 24 -24z m327 -1 c-3 -8 -6 -5 -6 6 -1 11 2 17 5 13 3 -3 4 -12
1 -19z m-5 -38 c11 0 18 -7 18 -20 0 -17 -7 -20 -45 -20 -35 0 -45 4 -45 16 0
22 32 46 45 33 5 -5 17 -9 27 -9z m-465 -22 c-3 -8 -6 -5 -6 6 -1 11 2 17 5
13 3 -3 4 -12 1 -19z m333 -58 c-20 -13 -40 -13 -40 0 0 6 12 10 28 10 21 0
24 -2 12 -10z"/>
<path d="M767 363 c-4 -3 -7 -39 -7 -80 l0 -73 45 0 c32 0 47 5 51 15 5 12 10
13 20 4 8 -7 27 -9 46 -5 18 4 41 7 51 7 9 0 17 6 17 13 0 16 -54 26 -104 19
-34 -4 -37 -3 -34 17 3 21 9 23 66 25 101 4 102 26 1 30 -45 2 -64 7 -71 19
-9 16 -68 23 -81 9z m41 -25 c18 -18 15 -95 -4 -102 -9 -3 -18 -6 -20 -6 -2 0
-4 27 -4 60 0 60 6 70 28 48z"/>
</g>
</svg>
