<?xml version="1.0" standalone="no"?>
<!DOCTYPE svg PUBLIC "-//W3C//DTD SVG 20010904//EN"
 "http://www.w3.org/TR/2001/REC-SVG-20010904/DTD/svg10.dtd">
<svg version="1.0" xmlns="http://www.w3.org/2000/svg"
 width="55.000000pt" height="110.000000pt" viewBox="0 0 55.000000 110.000000"
 preserveAspectRatio="xMidYMid meet">
<metadata>
Created by potrace 1.12, written by Peter Selinger 2001-2015
</metadata>
<g transform="translate(0.000000,110.000000) scale(0.100000,-0.100000)"
fill="#000000" stroke="none">
<path d="M12 738 l3 -353 32 -55 c17 -30 50 -92 73 -137 47 -91 128 -173 172
-173 23 0 68 36 68 54 0 5 11 19 25 32 14 13 25 26 25 30 0 3 11 19 25 36 14
16 28 42 31 56 4 15 14 41 24 57 9 17 23 53 29 80 7 28 17 59 22 70 5 11 8
155 7 335 l-3 315 -268 3 -269 2 4 -352z m116 325 c-64 -4 -68 -6 -74 -30 l-7
-27 -9 23 c-4 13 -6 27 -2 32 3 5 40 8 82 7 l77 -2 -67 -3z m232 -22 c0 -41
-20 -53 -82 -49 -47 3 -53 6 -56 26 -7 45 3 52 73 52 65 0 65 0 65 -29z m160
9 c0 -11 -4 -20 -10 -20 -5 0 -10 9 -10 20 0 11 5 20 10 20 6 0 10 -9 10 -20z
m-403 -26 c-3 -3 -12 -4 -19 -1 -8 3 -5 6 6 6 11 1 17 -2 13 -5z m336 -1 c-13
-2 -33 -2 -45 0 -13 2 -3 4 22 4 25 0 35 -2 23 -4z m-263 -38 c11 -13 5 -15
-44 -15 -52 0 -66 7 -49 23 12 13 81 7 93 -8z m264 9 c32 -12 15 -24 -35 -24
-45 0 -50 2 -39 15 13 15 47 20 74 9z m-167 -41 c-16 -16 -18 -16 -34 0 -16
16 -15 17 17 17 32 0 33 -1 17 -17z m-27 -25 c26 -19 30 -28 30 -73 0 -28 5
-56 12 -63 7 -7 40 -12 80 -12 l68 0 0 -45 0 -45 -82 0 -83 0 2 -71 c2 -99 2
-99 71 -99 49 0 62 -4 82 -25 28 -29 19 -46 -10 -20 -11 10 -23 15 -28 11 -4
-5 3 -15 16 -23 12 -9 22 -19 22 -24 0 -5 -74 -9 -165 -9 -162 0 -198 8 -140
30 14 5 25 14 25 20 0 19 -29 10 -55 -17 -24 -26 -25 -27 -25 -7 0 45 29 63
105 66 l70 3 -1 80 -1 80 -77 3 -76 3 0 34 c0 18 -2 39 -5 47 -4 11 10 13 69
10 71 -4 75 -3 91 22 20 30 16 103 -7 117 -7 5 -46 9 -86 9 -46 0 -71 4 -67
10 3 6 35 10 71 10 51 0 71 -5 94 -22z m195 12 c4 -6 -22 -10 -69 -10 -44 0
-76 4 -76 10 0 6 30 10 69 10 39 0 73 -4 76 -10z m-327 -88 c-16 -19 -3 -25
21 -10 16 10 23 10 33 0 20 -20 25 -14 32 31 7 39 8 41 22 23 18 -25 18 -60 0
-75 -14 -12 -101 -22 -120 -15 -10 4 -11 28 -6 94 0 9 6 6 15 -10 9 -18 10
-29 3 -38z m57 43 c0 -5 -10 -11 -22 -13 -16 -2 -23 2 -23 13 0 11 7 15 23 13
12 -2 22 -7 22 -13z m157 -40 c-2 -39 5 -44 24 -17 10 14 15 15 25 5 20 -20
26 -16 33 27 8 50 26 43 26 -10 0 -43 -6 -50 -51 -55 -65 -9 -108 30 -89 81
14 36 34 18 32 -31z m56 38 c2 -8 -5 -13 -17 -13 -12 0 -21 6 -21 16 0 18 31
15 38 -3z m109 -165 c-2 -13 -4 -3 -4 22 0 25 2 35 4 23 2 -13 2 -33 0 -45z
m-457 -25 c0 -22 -2 -25 -10 -13 -13 20 -13 40 0 40 6 0 10 -12 10 -27z m462
-265 c-10 -54 -43 -143 -80 -213 -20 -39 -122 -166 -139 -172 -27 -10 -101 66
-150 155 -101 181 -104 190 -110 333 -4 84 -2 129 4 129 13 0 23 -81 23 -182
l0 -78 210 0 c160 0 212 3 215 13 4 11 11 125 16 237 1 26 6 0 12 -60 6 -71 6
-124 -1 -162z m-286 223 c-6 -9 -124 -6 -134 4 -3 3 27 5 67 5 41 0 70 -4 67
-9z m221 2 c-10 -10 -114 -11 -129 -2 -8 5 18 9 61 9 41 0 71 -3 68 -7z m-320
-53 c8 -12 9 -21 3 -25 -6 -3 -10 -15 -10 -26 0 -12 -7 -19 -20 -19 -17 0 -20
7 -20 45 0 36 3 45 18 45 9 0 23 -9 29 -20z m61 13 c-10 -2 -26 -2 -35 0 -10
3 -2 5 17 5 19 0 27 -2 18 -5z m47 -39 c0 -39 -1 -40 -22 -18 -13 13 -14 19
-3 40 17 30 25 23 25 -22z m105 -10 c0 -13 -28 -1 -32 14 -9 33 4 44 18 17 8
-15 14 -29 14 -31z m53 49 c-7 -2 -21 -2 -30 0 -10 3 -4 5 12 5 17 0 24 -2 18
-5z m61 -9 c9 -23 7 -72 -3 -78 -4 -3 -16 3 -26 14 -12 13 -15 27 -10 49 7 33
29 41 39 15z m-69 -54 c3 -5 -3 -10 -15 -10 -12 0 -18 5 -15 10 3 6 10 10 15
10 5 0 12 -4 15 -10z m-208 -6 c-3 -3 -12 -4 -19 -1 -8 3 -5 6 6 6 11 1 17 -2
13 -5z"/>
<path d="M210 295 c0 -32 5 -47 15 -51 12 -5 13 -10 4 -20 -7 -8 -9 -27 -5
-46 4 -18 7 -41 7 -50 0 -10 6 -18 13 -18 16 0 26 54 19 104 -4 34 -3 37 17
34 21 -3 23 -9 25 -66 4 -100 26 -102 30 -2 2 44 7 64 19 73 12 9 17 23 14 47
l-3 35 -77 3 -78 3 0 -46z m140 17 c0 -19 -27 -32 -67 -32 -24 0 -43 2 -43 4
0 2 -3 11 -6 20 -5 14 3 16 55 16 34 0 61 -4 61 -8z"/>
</g>
</svg>
