<?xml version="1.0" standalone="no"?>
<!DOCTYPE svg PUBLIC "-//W3C//DTD SVG 20010904//EN"
 "http://www.w3.org/TR/2001/REC-SVG-20010904/DTD/svg10.dtd">
<svg version="1.0" xmlns="http://www.w3.org/2000/svg"
 width="55.000000pt" height="165.000000pt" viewBox="0 0 55.000000 165.000000"
 preserveAspectRatio="xMidYMid meet">
<metadata>
Created by potrace 1.12, written by Peter Selinger 2001-2015
</metadata>
<g transform="translate(0.000000,165.000000) scale(0.100000,-0.100000)"
fill="#000000" stroke="none">
<path d="M123 1613 l-73 -4 0 -34 c0 -18 -5 -46 -11 -62 -16 -43 -24 -296 -24
-784 l0 -446 30 -59 c18 -36 59 -89 107 -136 104 -105 119 -106 218 -5 39 39
80 88 91 107 11 19 28 49 38 65 10 17 21 42 25 58 3 15 11 27 16 27 14 0 14
932 0 946 -6 6 -13 62 -16 124 -2 61 -7 117 -11 123 -4 6 -9 27 -13 47 l-5 35
-150 1 c-83 0 -183 -1 -222 -3z m360 -63 c4 -25 12 -70 18 -100 5 -30 12 -277
15 -549 5 -386 4 -506 -7 -548 -7 -30 -16 -56 -21 -59 -5 -3 -6 -9 -3 -13 2
-5 -4 -16 -15 -26 -11 -10 -20 -23 -20 -30 0 -14 -103 -133 -147 -170 l-33
-27 -47 38 c-58 46 -132 133 -164 194 -24 45 -24 48 -27 395 -4 340 12 829 27
850 4 5 8 26 10 45 2 19 5 38 8 43 2 4 93 6 201 5 l197 -3 8 -45z"/>
<path d="M69 1273 c-17 -260 -18 -899 0 -960 6 -23 22 -50 35 -60 12 -10 28
-28 34 -40 7 -12 22 -23 34 -25 19 -2 24 -10 26 -45 3 -38 6 -43 27 -43 21 0
24 5 27 42 4 58 31 60 32 3 1 -36 4 -40 29 -43 26 -3 27 -1 27 38 0 34 4 42
25 50 14 5 28 17 32 27 4 9 23 34 43 54 35 36 37 43 43 121 4 46 11 97 15 113
11 41 4 691 -10 848 l-11 127 -197 0 -197 0 -14 -207z m396 72 c4 -63 10 -117
13 -119 4 -2 5 -31 4 -65 l-4 -61 -49 0 c-52 0 -54 6 -21 57 25 40 29 263 4
263 -4 0 -23 -25 -41 -55 -18 -30 -37 -55 -42 -55 -5 0 -9 19 -9 43 0 46 -13
67 -41 67 -21 0 -29 -20 -29 -71 0 -52 -16 -50 -64 11 -21 27 -42 47 -46 45
-12 -8 -12 -272 0 -280 21 -13 9 -25 -26 -25 l-37 0 6 68 c4 37 9 118 13 180
l7 112 177 0 178 0 7 -115z m-134 -267 c-1 -100 -4 -185 -7 -189 -3 -5 -14 -1
-24 9 -24 20 -26 65 -4 87 20 20 10 33 -11 15 -20 -17 -22 -15 -30 53 -5 39
-4 57 4 57 6 0 11 -7 11 -15 0 -8 4 -15 9 -15 10 0 21 35 21 72 0 15 5 30 10
33 6 3 10 25 10 47 0 23 3 38 6 35 4 -4 6 -88 5 -189z m36 160 c-3 -7 -5 -2
-5 12 0 14 2 19 5 13 2 -7 2 -19 0 -25z m-179 -167 c9 -1 12 -19 10 -68 l-3
-68 -64 -3 -64 -3 7 67 c4 37 9 70 11 74 3 5 52 6 103 1z m289 -4 c3 -3 5 -34
5 -69 l0 -63 -63 0 -64 0 -3 59 c-2 32 -1 64 2 71 4 12 111 14 123 2z m-272
-199 c10 -61 30 -88 64 -88 45 0 59 9 71 46 10 29 16 34 42 34 l31 0 -6 -130
c-3 -71 -9 -135 -13 -141 -10 -16 -223 -7 -233 10 -5 7 -11 54 -14 104 -4 51
-9 107 -13 125 -6 28 -4 32 14 32 34 0 35 18 0 22 -51 5 -47 28 5 28 l45 0 7
-42z m223 30 c-5 -15 -42 -22 -64 -14 -25 10 -5 26 32 26 24 0 34 -4 32 -12z
m-316 -80 c3 -31 0 -72 -8 -97 -7 -25 -11 -48 -8 -53 10 -16 23 -7 27 20 2 15
5 -3 6 -40 1 -61 -1 -69 -29 -96 l-29 -30 -3 172 c-2 94 -1 177 0 183 3 9 9
10 22 3 12 -6 19 -25 22 -62z m354 -25 c-15 -212 -18 -233 -34 -233 -13 0 -14
12 -8 77 3 42 6 107 6 144 0 48 5 72 16 83 8 9 18 16 21 16 3 0 3 -39 -1 -87z
m-156 37 c0 -21 -15 -27 -25 -10 -7 12 2 30 16 30 5 0 9 -9 9 -20z m30 -278
c0 -5 12 -15 28 -22 26 -13 25 -14 -38 -22 -91 -12 -170 -2 -170 21 0 10 3 21
7 24 9 10 173 8 173 -1z m122 -137 c-5 -90 -49 -172 -58 -108 -10 67 -2 64
-142 61 l-127 -3 -11 -45 c-10 -44 -11 -44 -24 -21 -7 13 -15 62 -18 108 l-5
83 194 -2 194 -3 -3 -70z m-228 -216 c0 -39 -2 -73 -6 -76 -5 -2 -8 33 -8 78
0 45 3 79 6 76 4 -4 7 -38 8 -78z m86 0 c0 -44 -4 -78 -9 -75 -12 8 -12 156 0
156 5 0 9 -36 9 -81z m-122 23 c2 -7 -3 -12 -12 -12 -9 0 -16 7 -16 16 0 17
22 14 28 -4z m82 3 c0 -8 -4 -15 -9 -15 -13 0 -22 16 -14 24 11 11 23 6 23 -9z
m81 -8 c-13 -13 -26 -3 -16 12 3 6 11 8 17 5 6 -4 6 -10 -1 -17z"/>
<path d="M367 443 c-12 -12 -7 -22 8 -17 8 4 15 10 15 15 0 11 -14 12 -23 2z"/>
</g>
</svg>
