<?xml version="1.0" standalone="no"?>
<!DOCTYPE svg PUBLIC "-//W3C//DTD SVG 20010904//EN"
 "http://www.w3.org/TR/2001/REC-SVG-20010904/DTD/svg10.dtd">
<svg version="1.0" xmlns="http://www.w3.org/2000/svg"
 width="50.000000pt" height="213.000000pt" viewBox="0 0 50.000000 213.000000"
 preserveAspectRatio="xMidYMid meet">
<metadata>
Created by potrace 1.12, written by Peter Selinger 2001-2015
</metadata>
<g transform="translate(0.000000,213.000000) scale(0.100000,-0.100000)"
fill="#000000" stroke="none">
<path d="M7 2123 c-4 -3 -7 -418 -7 -920 l0 -914 29 -62 c17 -34 44 -76 60
-94 17 -18 31 -36 31 -41 0 -12 54 -62 67 -62 6 0 13 -7 17 -15 3 -10 19 -15
47 -15 38 0 47 6 103 63 39 39 77 93 104 144 l42 81 0 921 0 921 -243 0 c-134
0 -247 -3 -250 -7z m461 -150 c-3 -117 -5 -138 -19 -141 -13 -2 -17 10 -22 69
-3 40 -11 75 -16 78 -6 4 -13 25 -17 47 -8 55 -21 74 -34 54 -5 -8 -10 -23
-10 -33 0 -10 -7 -31 -15 -47 -8 -16 -18 -71 -22 -122 -7 -104 -15 -117 -73
-117 -59 0 -66 12 -72 124 -4 64 -11 111 -22 130 -9 17 -16 40 -16 53 0 13 -6
22 -15 22 -8 0 -15 -8 -15 -18 0 -11 -7 -33 -16 -51 -9 -18 -18 -68 -21 -111
-4 -58 -10 -80 -19 -80 -11 0 -14 28 -14 133 0 74 3 137 7 140 3 4 102 7 220
7 l214 0 -3 -137z m-342 -30 c-14 -14 -26 15 -19 48 l7 34 9 -38 c5 -21 6 -41
3 -44z m265 10 c7 -7 5 -13 -3 -16 -33 -11 -40 12 -20 63 4 10 7 7 10 -10 2
-14 8 -30 13 -37z m-243 -206 c2 -102 -1 -157 -8 -157 -5 0 -10 18 -10 39 0
23 -7 46 -16 55 -8 9 -13 20 -10 25 4 5 1 11 -5 13 -8 3 -9 10 -2 23 5 11 8
47 7 80 -4 72 0 88 23 83 16 -3 18 -20 21 -161z m250 114 c2 -30 0 -41 -8 -36
-16 10 -30 52 -23 70 10 28 28 9 31 -34z m2 -166 c0 -70 -4 -115 -10 -115 -5
0 -10 23 -10 50 0 28 -4 50 -10 50 -5 0 -10 14 -10 31 0 17 4 28 10 24 7 -4 7
3 0 19 -6 18 -6 26 1 26 6 0 9 7 5 15 -3 9 0 15 9 15 12 0 15 -21 15 -115z
m70 -94 l0 -209 -219 0 -218 1 -2 205 c-2 164 0 203 11 200 10 -4 12 -37 10
-149 -3 -125 -1 -142 11 -126 8 9 19 17 25 17 5 0 13 -8 17 -17 6 -17 7 -17
20 0 13 18 15 18 40 1 l27 -17 -5 79 c-3 43 -8 96 -12 117 l-7 37 71 0 71 0 0
-44 c0 -27 -6 -48 -15 -56 -12 -10 -15 -27 -12 -67 5 -63 11 -72 35 -50 22 20
38 22 46 5 5 -10 7 -10 12 0 8 16 24 15 45 -4 10 -9 23 -13 28 -9 15 8 14 122
0 127 -6 2 -13 34 -16 71 -5 59 -3 70 13 82 10 8 20 15 22 15 1 0 2 -94 2
-209z m-387 -257 c-1 -10 -6 -134 -10 -274 l-8 -255 -7 245 c-8 254 -5 314 15
307 7 -2 11 -13 10 -23z m48 9 c6 -98 5 -134 -2 -139 -5 -3 -9 -30 -9 -61 0
-31 -2 -54 -5 -51 -8 8 -17 227 -10 248 8 25 25 26 26 3z m227 -60 l-3 -76
-95 -1 -95 -1 -3 78 -3 77 101 0 101 0 -3 -77z m52 -48 c0 -126 -12 -165 -24
-79 -3 26 -6 82 -6 125 0 64 3 79 15 79 13 0 15 -21 15 -125z m40 -161 c0
-176 -4 -274 -10 -274 -6 0 -10 100 -10 281 0 184 3 278 10 274 6 -4 10 -108
10 -281z m-86 69 c8 -49 6 -244 -2 -305 -7 -44 -10 -49 -55 -73 -58 -30 -59
-30 -113 -3 -39 19 -44 26 -51 67 -12 76 -7 319 7 336 10 11 35 15 110 15 l97
0 7 -37z m-254 -384 c-7 -21 -21 -46 -31 -55 -17 -15 -18 -15 -24 9 -7 26 9
67 25 67 6 0 10 45 10 108 0 60 3 112 8 116 4 4 11 -40 16 -99 6 -80 5 -117
-4 -146z m300 71 c0 -53 2 -60 20 -60 17 0 20 -7 20 -45 0 -25 -5 -45 -11 -45
-5 0 -22 25 -35 55 -21 46 -25 64 -19 105 9 69 25 63 25 -10z m-11 -142 c1 -5
-5 -8 -13 -8 -8 0 -18 -16 -23 -37 l-9 -38 -94 -3 c-113 -3 -123 -1 -111 30 7
17 4 28 -11 45 -15 16 -18 29 -13 52 8 37 9 37 60 10 47 -26 110 -22 152 9
l28 21 17 -37 c9 -20 17 -40 17 -44z m-275 -34 c10 -25 -4 -37 -20 -17 -13 17
-15 17 -29 -1 -15 -20 -15 -20 -15 0 0 12 3 24 7 27 12 13 51 7 57 -9z m316
-9 c15 -19 5 -34 -12 -17 -9 9 -15 9 -25 0 -7 -6 -16 -8 -20 -5 -8 9 16 37 32
37 7 0 18 -7 25 -15z m-381 -96 c6 -18 11 -65 11 -105 0 -65 3 -76 25 -98 16
-16 25 -36 25 -58 0 -25 -3 -29 -12 -20 -17 17 -28 15 -28 -5 0 -9 -3 -13 -7
-9 -4 3 -6 28 -4 55 1 27 -2 52 -8 56 -6 3 -11 19 -11 35 0 16 -4 32 -10 35
-12 8 -13 145 -1 145 5 0 14 -14 20 -31z m307 -69 l0 -90 -119 0 c-105 0 -118
2 -113 16 3 9 6 49 6 90 l0 74 113 0 112 0 1 -90z m95 -64 c-6 -7 -16 -48 -22
-92 -8 -49 -18 -83 -28 -91 -23 -17 -31 -7 -31 41 0 32 6 48 25 66 23 21 25
31 25 102 0 60 4 85 18 103 17 23 17 22 20 -47 2 -38 -2 -75 -7 -82z m-93 -68
c-3 -9 -37 -14 -110 -16 -85 -2 -107 0 -118 13 -11 13 1 15 110 15 93 0 121
-3 118 -12z m-137 -90 c-3 -57 5 -88 25 -88 11 0 14 16 14 71 l0 70 38 -3 37
-3 3 -52 c2 -39 7 -53 18 -53 40 0 20 -60 -38 -117 -37 -35 -128 -58 -128 -32
0 8 -11 22 -24 32 -13 10 -30 32 -36 48 -7 16 -16 27 -20 24 -4 -3 -15 6 -24
20 -15 23 -15 28 -1 47 l15 22 0 -24 c0 -14 5 -32 10 -40 9 -13 11 -13 20 0 5
8 10 27 10 41 0 15 3 41 6 58 6 30 9 32 43 29 l35 -3 -3 -47z"/>
<path d="M170 2014 c0 -58 14 -74 67 -74 55 0 70 16 65 70 l-4 40 -64 0 -64 0
0 -36z m116 -1 c-3 -8 -6 -21 -6 -29 0 -10 -12 -14 -40 -14 -22 0 -40 3 -41 8
0 4 -2 17 -3 29 -2 21 1 22 46 21 39 0 48 -4 44 -15z"/>
<path d="M193 1336 c-13 -6 -23 -14 -23 -18 0 -16 37 -7 55 12 21 23 6 26 -32
6z"/>
<path d="M292 1340 c-25 -10 -40 -38 -26 -49 5 -3 9 -15 9 -26 0 -14 8 -21 28
-23 24 -3 27 0 27 28 0 25 -4 31 -15 26 -8 -3 -15 -2 -15 3 0 5 7 14 15 21 30
25 18 36 -23 20z"/>
<path d="M192 1277 c-25 -26 -20 -37 15 -37 19 0 23 5 23 30 0 36 -9 38 -38 7z"/>
<path d="M170 1086 c0 -22 19 -58 39 -72 12 -9 13 -15 3 -26 -16 -19 -5 -30
17 -16 13 8 27 5 59 -11 23 -11 44 -21 47 -21 9 0 6 67 -5 94 -13 35 -49 56
-109 63 -44 5 -51 3 -51 -11z m70 -31 c7 -9 10 -18 7 -21 -10 -11 -37 5 -37
21 0 19 14 19 30 0z m55 -63 c-21 -5 -40 12 -30 28 5 8 13 6 27 -7 18 -16 19
-18 3 -21z"/>
<path d="M222 834 c6 -55 68 -59 68 -4 0 28 -3 30 -36 30 -32 0 -35 -2 -32
-26z m45 0 c-3 -3 -12 -4 -19 -1 -8 3 -5 6 6 6 11 1 17 -2 13 -5z"/>
<path d="M81 314 c0 -11 3 -14 6 -6 3 7 2 16 -1 19 -3 4 -6 -2 -5 -13z"/>
</g>
</svg>
