<?xml version="1.0" standalone="no"?>
<!DOCTYPE svg PUBLIC "-//W3C//DTD SVG 20010904//EN"
 "http://www.w3.org/TR/2001/REC-SVG-20010904/DTD/svg10.dtd">
<svg version="1.0" xmlns="http://www.w3.org/2000/svg"
 width="165.000000pt" height="55.000000pt" viewBox="0 0 165.000000 55.000000"
 preserveAspectRatio="xMidYMid meet">
<metadata>
Created by potrace 1.12, written by Peter Selinger 2001-2015
</metadata>
<g transform="translate(0.000000,55.000000) scale(0.100000,-0.100000)"
fill="#000000" stroke="none">
<path d="M364 540 c-6 -6 -62 -13 -124 -16 -61 -2 -117 -7 -123 -11 -6 -4 -27
-9 -47 -13 l-35 -5 -3 -80 c-2 -44 0 -144 3 -223 l7 -142 33 0 c19 0 46 -5 62
-11 43 -16 296 -24 784 -24 l446 0 59 30 c36 18 89 59 137 107 104 104 105
119 4 218 -39 39 -88 80 -107 91 -19 11 -48 28 -65 38 -16 10 -42 21 -57 25
-16 3 -28 11 -28 16 0 14 -932 14 -946 0z m937 -31 c19 -6 41 -13 49 -16 8 -4
18 -6 21 -5 4 1 15 -8 24 -18 10 -11 23 -20 30 -20 14 0 133 -103 170 -147
l27 -33 -38 -47 c-46 -58 -133 -132 -194 -164 -45 -24 -48 -24 -395 -27 -340
-4 -829 12 -850 27 -5 4 -26 8 -45 10 -19 1 -38 6 -43 10 -4 4 -6 95 -5 202
l3 194 25 3 c14 1 41 7 60 13 63 18 258 26 696 28 287 1 442 -3 465 -10z"/>
<path d="M418 499 c-6 -4 -64 -10 -129 -14 l-119 -7 0 -198 0 -197 208 -14
c259 -17 898 -18 959 0 23 6 50 22 60 35 10 12 28 28 40 34 12 7 23 22 25 34
2 19 10 24 46 26 37 3 42 6 42 27 0 21 -5 24 -42 27 -58 4 -60 31 -3 32 36 1
40 4 43 29 3 26 1 27 -38 27 -34 0 -42 4 -50 25 -5 14 -17 28 -27 32 -9 4 -34
24 -56 45 -33 31 -46 38 -81 38 -22 0 -70 5 -106 12 -70 12 -754 18 -772 7z
m132 -70 c0 -52 -6 -54 -57 -21 -40 25 -263 29 -263 4 0 -4 25 -23 55 -41 30
-18 55 -37 55 -42 0 -5 -19 -9 -43 -9 -46 0 -67 -13 -67 -41 0 -21 20 -29 71
-29 52 0 50 -16 -11 -64 -27 -21 -47 -42 -45 -46 8 -12 272 -12 280 0 13 21
25 9 25 -26 l0 -37 -67 6 c-38 4 -119 9 -180 13 l-113 7 0 177 0 178 115 7
c63 4 117 10 119 13 2 4 31 5 65 4 l61 -4 0 -49z m165 -10 l0 -64 -70 0 -70 0
0 55 c0 30 3 60 7 65 3 6 35 9 70 9 l63 -2 0 -63z m303 35 c52 -5 72 -11 72
-21 0 -11 -23 -13 -132 -8 -159 7 -174 10 -182 31 -7 17 15 17 242 -2z m320
-16 c34 -21 35 -30 5 -34 -67 -10 -64 -2 -61 -142 l3 -127 45 -11 c44 -10 44
-11 21 -24 -13 -7 -62 -15 -108 -18 l-83 -5 0 190 c0 104 2 192 5 195 13 13
142 -5 173 -24z m-573 -46 c0 -46 -19 -44 -23 2 -3 28 0 37 10 34 7 -3 13 -19
13 -36z m296 2 c16 -10 7 -223 -10 -233 -7 -5 -54 -11 -104 -14 -51 -4 -107
-9 -124 -13 -29 -6 -33 -4 -33 14 0 34 -18 35 -22 0 -5 -51 -28 -47 -28 5 l0
45 43 7 c60 10 87 30 87 64 0 45 -9 59 -46 71 -29 10 -34 16 -34 42 l0 31 130
-6 c71 -3 135 -9 141 -13z m83 -182 c-5 -47 -8 -53 -27 -50 -20 3 -22 9 -25
91 -1 48 1 87 6 87 5 0 15 12 22 28 13 26 14 25 22 -38 5 -36 6 -89 2 -118z
m-731 151 c-7 -2 -19 -2 -25 0 -7 3 -2 5 12 5 14 0 19 -2 13 -5z m1024 -19
c-9 -9 -28 6 -21 18 4 6 10 6 17 -1 6 -6 8 -13 4 -17z m-679 -19 c9 -3 8 -10
-5 -25 -21 -24 -65 -26 -88 -4 -20 20 -33 10 -15 -11 17 -20 15 -22 -52 -30
-40 -5 -58 -4 -58 4 0 6 7 11 15 11 8 0 15 4 15 9 0 10 -35 21 -72 21 -15 0
-30 5 -33 10 -3 6 -24 10 -46 10 -22 0 -38 3 -36 8 5 7 352 5 375 -3z m768
-14 c-8 -12 -156 -12 -156 0 0 5 36 9 81 9 44 0 78 -4 75 -9z m-688 -13 c-3
-7 -11 -13 -18 -13 -7 0 -15 6 -17 13 -3 7 4 12 17 12 13 0 20 -5 18 -12z
m600 -29 c-2 -6 -8 -10 -13 -10 -5 0 -11 4 -13 10 -2 6 4 11 13 11 9 0 15 -5
13 -11z m89 -42 c3 -4 -32 -7 -78 -6 -46 0 -76 3 -67 7 22 9 136 7 145 -1z
m-809 -94 l3 -63 -33 1 c-18 0 -51 3 -73 7 -38 7 -40 9 -41 47 -1 74 1 76 75
73 l66 -3 3 -62z m722 52 c0 -8 -7 -15 -15 -15 -16 0 -20 12 -8 23 11 12 23 8
23 -8z m-342 -85 l30 -29 -172 -3 c-94 -2 -177 -1 -183 0 -9 3 -10 9 -3 22 13
24 101 32 159 14 25 -7 48 -11 53 -8 16 10 7 23 -19 27 -16 2 2 5 39 6 61 1
69 -1 96 -29z"/>
<path d="M1202 378 c2 -6 10 -14 16 -16 7 -2 10 2 6 12 -7 18 -28 22 -22 4z"/>
</g>
</svg>
