<?xml version="1.0" standalone="no"?>
<!DOCTYPE svg PUBLIC "-//W3C//DTD SVG 20010904//EN"
 "http://www.w3.org/TR/2001/REC-SVG-20010904/DTD/svg10.dtd">
<svg version="1.0" xmlns="http://www.w3.org/2000/svg"
 width="255.000000pt" height="229.000000pt" viewBox="0 0 255.000000 229.000000"
 preserveAspectRatio="xMidYMid meet">
<metadata>
Created by potrace 1.13, written by Peter Selinger 2001-2015
</metadata>
<g transform="translate(0.000000,229.000000) scale(0.100000,-0.100000)"
fill="#000000" stroke="none">
<path d="M978 2090 c-115 -61 -123 -234 -15 -300 18 -11 36 -21 42 -23 7 -3
-80 -462 -90 -475 -3 -3 -217 236 -228 255 -4 7 -1 26 8 42 35 68 9 165 -54
206 -50 33 -85 39 -136 25 -50 -14 -110 -72 -121 -115 -21 -84 27 -177 107
-206 l44 -16 122 -338 c67 -185 124 -339 126 -341 3 -3 72 3 153 13 196 23
580 23 783 0 80 -9 146 -16 147 -14 1 1 56 148 122 327 66 179 123 332 127
342 3 9 18 19 33 23 66 16 122 90 122 160 0 20 -9 53 -20 74 -65 128 -235 128
-300 0 -25 -48 -25 -89 -2 -138 l19 -38 -113 -132 c-98 -113 -114 -128 -119
-109 -2 13 -21 120 -41 238 -35 206 -36 215 -18 225 10 5 35 26 55 45 80 77
52 222 -52 275 -36 19 -122 19 -158 1 -91 -47 -130 -175 -77 -250 47 -64 49
-43 -32 -293 -42 -128 -79 -233 -82 -233 -4 0 -43 105 -87 233 l-80 232 27 30
c39 43 50 68 50 116 0 135 -142 222 -262 159z"/>
<path d="M1080 703 c-236 -23 -329 -36 -354 -51 -53 -31 -86 -129 -86 -253 l0
-59 685 0 685 0 0 73 c0 149 -57 247 -150 261 -205 29 -623 45 -780 29z"/>
</g>
</svg>
